<svg width="77" height="77" viewBox="0 0 77 77" fill="none" xmlns="http://www.w3.org/2000/svg">
<path d="M32.0833 48.125L32.0833 38.5" stroke="#FFF6D2" stroke-width="5" stroke-linecap="round"/>
<path d="M25.6667 16.0416L19.25 28.875M51.3333 16.0416L57.75 28.875" stroke="#FFF6D2" stroke-width="5" stroke-linecap="round"/>
<path d="M44.9167 48.125L44.9167 38.5" stroke="#FFF6D2" stroke-width="5" stroke-linecap="round"/>
<path d="M9.625 28.875H13.0655C14.4992 28.875 15.216 28.875 15.7475 29.2704C16.2789 29.6658 16.4849 30.3524 16.8968 31.7256L24.8115 58.1077C25.2234 59.4809 25.4294 60.1675 25.9609 60.5629C26.4923 60.9583 27.2091 60.9583 28.6428 60.9583H48.3572C49.7909 60.9583 50.5077 60.9583 51.0391 60.5629C51.5706 60.1675 51.7766 59.4809 52.1885 58.1077L60.1031 31.7256C60.5151 30.3524 60.7211 29.6658 61.2525 29.2704C61.784 28.875 62.5008 28.875 63.9345 28.875H67.375" stroke="#FFF6D2" stroke-width="5" stroke-linecap="round"/>
<path d="M9.625 28.875L67.375 28.875" stroke="#FFF6D2" stroke-width="5" stroke-linecap="round"/>
</svg>
