<svg width="1440" height="1024" viewBox="0 0 1440 1024" fill="none" xmlns="http://www.w3.org/2000/svg">
<path d="M55.8306 962.387L75.8992 920.079L60.2011 870.134L66.8072 836.917L35.8682 835.681L16.6775 819.322L15.0497 775.658L58.6264 741.963L93.9587 728.663L132.492 747.798L152.55 736.332L176.405 733.814L200.89 754.686L240.29 745.996L285.538 771.999L307.756 826.358L330.917 846.102L325.342 876.77L356.39 918.09L343.427 972.168L308.387 989.146L310.731 1018.57L285.347 1048.35L262.186 1028.6L243.57 1050.44L214.204 1037.98L184.675 1000.23L147.118 993.358L106.633 1019.4L81.6833 1070.12L41.8486 1057.87L15.8234 1025.4L55.8306 962.387Z" fill="#5EDE80"/>
<path d="M1057.74 131.677L1076.02 119.183L1096.22 89.6464L1126.42 86.4784L1148.11 66.1589L1187.31 50.3999L1244.88 56.1833L1298.23 43.0737L1338.09 58.2305L1367.62 104.992L1399.45 126.765L1417.81 174.482L1449.64 196.254L1468.2 242.544L1453.38 283.571L1429.2 283.05L1391.03 281.936L1338.87 298.989L1309.77 266.971L1269.67 276.646L1217.44 252.248L1196.57 218.441L1175 223.218L1124.34 188.563L1066.63 160.802L1057.74 131.677Z" fill="#FF7B1A"/>
<path d="M329.341 166.031L288.14 149.852C286.702 149.287 285.194 150.497 285.433 152.023L292.516 197.231C292.629 197.954 293.129 198.558 293.818 198.804L334.779 213.449C336.208 213.96 337.663 212.756 337.429 211.256L330.586 167.583C330.476 166.882 330.002 166.291 329.341 166.031Z" fill="#F1D145"/>
<path d="M324.89 167.272L299.359 157.314C295.047 155.632 290.534 159.259 291.251 163.832L295.649 191.902C295.989 194.077 297.494 195.891 299.569 196.627L324.951 205.64C329.236 207.161 333.591 203.549 332.887 199.057L328.637 171.933C328.307 169.823 326.88 168.048 324.89 167.272Z" fill="#FFF6D2"/>
<ellipse cx="313.164" cy="182.395" rx="3.46152" ry="4.9116" transform="rotate(-38.8989 313.164 182.395)" fill="#F1D145"/>
<ellipse cx="301.409" cy="168.698" rx="3.46152" ry="4.9116" transform="rotate(-38.8989 301.409 168.698)" fill="#F1D145"/>
<ellipse cx="322.495" cy="173.839" rx="3.46152" ry="4.9116" transform="rotate(-38.8989 322.495 173.839)" fill="#F1D145"/>
<ellipse cx="303.062" cy="188.646" rx="3.46152" ry="4.9116" transform="rotate(-38.8989 303.062 188.646)" fill="#F1D145"/>
<ellipse cx="324.146" cy="193.785" rx="3.46152" ry="4.9116" transform="rotate(-38.8989 324.146 193.785)" fill="#F1D145"/>
<path d="M242.712 178.533L276.991 150.528C278.187 149.551 279.993 150.241 280.232 151.767L287.315 196.975C287.428 197.698 287.137 198.426 286.556 198.871L252.037 225.342C250.832 226.265 249.079 225.564 248.844 224.064L242.001 180.391C241.891 179.69 242.162 178.982 242.712 178.533Z" fill="#F1D145"/>
<path d="M292.484 202.739L333.874 218.502C335.318 219.052 335.62 220.962 334.416 221.93L298.794 250.578C298.205 251.052 297.398 251.153 296.71 250.839L256.933 232.661C255.563 232.036 255.35 230.178 256.542 229.259L290.55 203.024C291.101 202.599 291.833 202.491 292.484 202.739Z" fill="#F1D145"/>
<ellipse cx="320.894" cy="222.727" rx="3.50186" ry="4.96883" transform="rotate(80.3392 320.894 222.727)" fill="#FFF6D2"/>
<ellipse cx="295.809" cy="226.656" rx="3.50186" ry="4.96883" transform="rotate(80.3392 295.809 226.656)" fill="#FFF6D2"/>
<ellipse cx="270.726" cy="230.587" rx="3.50186" ry="4.96883" transform="rotate(80.3392 270.726 230.587)" fill="#FFF6D2"/>
<ellipse cx="269.217" cy="173.7" rx="3.50186" ry="4.96883" transform="rotate(26.4261 269.217 173.7)" fill="#FFF6D2"/>
<ellipse cx="258.045" cy="199.007" rx="3.50186" ry="4.96883" transform="rotate(26.4261 258.045 199.007)" fill="#FFF6D2"/>
<circle cx="1284.38" cy="859.979" r="35.2846" transform="rotate(24.8472 1284.38 859.979)" stroke="#BF9BDE"/>
<circle cx="1283.62" cy="859.621" r="52.9664" transform="rotate(24.8472 1283.62 859.621)" stroke="#BF9BDE"/>
<circle cx="1284.41" cy="859.981" r="34.9686" transform="rotate(24.8472 1284.41 859.981)" stroke="#BF9BDE" stroke-width="5"/>
<circle cx="1283.63" cy="859.622" r="51.9664" transform="rotate(24.8472 1283.63 859.622)" stroke="#BF9BDE" stroke-width="3"/>
<mask id="path-21-inside-1_379_162" fill="white">
<path d="M1294.36 807.244C1303.36 809.087 1311.72 813.214 1318.66 819.229L1307.39 832.227C1302.68 828.148 1297.01 825.349 1290.91 824.099L1294.36 807.244Z"/>
</mask>
<path d="M1294.36 807.244C1303.36 809.087 1311.72 813.214 1318.66 819.229L1307.39 832.227C1302.68 828.148 1297.01 825.349 1290.91 824.099L1294.36 807.244Z" stroke="#BF9BDE" stroke-width="68" mask="url(#path-21-inside-1_379_162)"/>
<mask id="path-22-inside-2_379_162" fill="white">
<path d="M1248.77 819.085C1255.73 813.099 1264.11 809.006 1273.12 807.2L1276.5 824.069C1270.39 825.294 1264.71 828.069 1259.99 832.129L1248.77 819.085Z"/>
</mask>
<path d="M1248.77 819.085C1255.73 813.099 1264.11 809.006 1273.12 807.2L1276.5 824.069C1270.39 825.294 1264.71 828.069 1259.99 832.129L1248.77 819.085Z" stroke="#BF9BDE" stroke-width="68" mask="url(#path-22-inside-2_379_162)"/>
<mask id="path-23-inside-3_379_162" fill="white">
<path d="M1230.17 859.446C1230.2 850.265 1232.59 841.247 1237.12 833.26L1252.08 841.743C1249.01 847.16 1247.39 853.276 1247.37 859.503L1230.17 859.446Z"/>
</mask>
<path d="M1230.17 859.446C1230.2 850.265 1232.59 841.247 1237.12 833.26L1252.08 841.743C1249.01 847.16 1247.39 853.276 1247.37 859.503L1230.17 859.446Z" stroke="#BF9BDE" stroke-width="68" mask="url(#path-23-inside-3_379_162)"/>
<mask id="path-24-inside-4_379_162" fill="white">
<path d="M1246.89 898.462C1240.22 892.152 1235.29 884.232 1232.57 875.464L1249 870.366C1250.84 876.313 1254.19 881.685 1258.71 885.964L1246.89 898.462Z"/>
</mask>
<path d="M1246.89 898.462C1240.22 892.152 1235.29 884.232 1232.57 875.464L1249 870.366C1250.84 876.313 1254.19 881.685 1258.71 885.964L1246.89 898.462Z" stroke="#BF9BDE" stroke-width="68" mask="url(#path-24-inside-4_379_162)"/>
<mask id="path-25-inside-5_379_162" fill="white">
<path d="M1331.53 835.866C1335.61 844.09 1337.5 853.226 1337.03 862.395L1319.84 861.503C1320.17 855.285 1318.88 849.088 1316.12 843.51L1331.53 835.866Z"/>
</mask>
<path d="M1331.53 835.866C1335.61 844.09 1337.5 853.226 1337.03 862.395L1319.84 861.503C1320.17 855.285 1318.88 849.088 1316.12 843.51L1331.53 835.866Z" stroke="#BF9BDE" stroke-width="68" mask="url(#path-25-inside-5_379_162)"/>
<mask id="path-26-inside-6_379_162" fill="white">
<path d="M1293.89 912.096C1284.88 913.857 1275.57 913.268 1266.85 910.387L1272.25 894.051C1278.16 896.006 1284.48 896.405 1290.59 895.211L1293.89 912.096Z"/>
</mask>
<path d="M1293.89 912.096C1284.88 913.857 1275.57 913.268 1266.85 910.387L1272.25 894.051C1278.16 896.006 1284.48 896.405 1290.59 895.211L1293.89 912.096Z" stroke="#BF9BDE" stroke-width="68" mask="url(#path-26-inside-6_379_162)"/>
<mask id="path-27-inside-7_379_162" fill="white">
<path d="M1331.09 884.247C1326.86 892.396 1320.61 899.318 1312.93 904.349L1303.5 889.956C1308.71 886.545 1312.95 881.85 1315.82 876.323L1331.09 884.247Z"/>
</mask>
<path d="M1331.09 884.247C1326.86 892.396 1320.61 899.318 1312.93 904.349L1303.5 889.956C1308.71 886.545 1312.95 881.85 1315.82 876.323L1331.09 884.247Z" stroke="#BF9BDE" stroke-width="68" mask="url(#path-27-inside-7_379_162)"/>
<circle cx="1284.14" cy="859.427" r="34.0476" transform="rotate(24.8472 1284.14 859.427)" stroke="#BF9BDE" stroke-width="6"/>
</svg>
