<svg width="224" height="231" viewBox="0 0 224 231" fill="none" xmlns="http://www.w3.org/2000/svg">
<path d="M38.1192 125.796L59.8149 106.351L62.8271 73.9174L74.611 56.4487L57.1571 48.294L50.0831 34.2899L59.6567 8.84594L92.7675 -0.00010461L116.24 0.871384L133.744 21.1233L148.012 19.3711L162.304 23.6676L171.33 41.5348L196.027 46.0305L215.731 71.8383L215.397 108.374L223.934 125.276L213.355 141.53L221.226 172.709L200.774 200.617L176.585 201.926L170.85 219.37L149.119 230.347L140.582 213.445L124.646 221.495L110.796 207.277L102.936 178.517L83.0429 165.533L53.5464 170.735L27.0267 193.829L7.11867 177.216L-3.74588e-06 152.325L38.1192 125.796Z" fill="#5EDE80"/>
</svg>
