<svg width="224" height="225" viewBox="0 0 224 225" fill="none" xmlns="http://www.w3.org/2000/svg">
<path d="M125.958 28.8679L57.0294 45.7616C55.5288 46.1293 54.9941 47.9871 56.0696 49.0963L107.094 101.723C107.604 102.249 108.36 102.454 109.066 102.258L176.261 83.5767C177.723 83.1702 178.218 81.3471 177.161 80.2576L127.87 29.4182C127.375 28.9082 126.647 28.6988 125.958 28.8679Z" fill="#F1D145"/>
<path d="M122.662 34.1002L74.1712 46.1018C69.678 47.2139 68.083 52.7794 71.305 56.1026L107.209 93.1336C108.741 94.7142 111.016 95.3286 113.136 94.7342L160.411 81.4793C164.79 80.2518 166.264 74.7901 163.099 71.5256L128.411 35.7479C126.924 34.2146 124.735 33.5871 122.662 34.1002Z" fill="#FFF6D2"/>
<ellipse cx="119.501" cy="64.1099" rx="5.35187" ry="7.59383" transform="rotate(-74.1091 119.501 64.1099)" fill="#F1D145"/>
<ellipse cx="92.4416" cy="57.2866" rx="5.35187" ry="7.59383" transform="rotate(-74.1091 92.4416 57.2866)" fill="#F1D145"/>
<ellipse cx="123.662" cy="44.9842" rx="5.35187" ry="7.59383" transform="rotate(-74.1091 123.662 44.9842)" fill="#F1D145"/>
<ellipse cx="112.313" cy="81.012" rx="5.35187" ry="7.59383" transform="rotate(-74.1091 112.313 81.012)" fill="#F1D145"/>
<ellipse cx="143.529" cy="68.708" rx="5.35187" ry="7.59383" transform="rotate(-74.1091 143.529 68.708)" fill="#F1D145"/>
<path d="M26.8933 122.639L45.9092 54.2653C46.3232 52.7769 48.1965 52.2998 49.272 53.409L100.297 106.036C100.806 106.562 100.988 107.324 100.77 108.023L80.0213 174.609C79.5698 176.058 77.7324 176.496 76.676 175.406L27.3843 124.567C26.8899 124.057 26.703 123.323 26.8933 122.639Z" fill="#F1D145"/>
<path d="M110.92 108.395L179.697 90.7867C181.193 90.4035 182.541 91.7897 182.115 93.2749L161.945 163.698C161.737 164.426 161.136 164.973 160.392 165.113L91.4987 178.07C90.0191 178.348 88.7742 176.953 89.2179 175.515L109.505 109.743C109.71 109.079 110.246 108.568 110.92 108.395Z" fill="#F1D145"/>
<ellipse cx="165.219" cy="108.167" rx="5.41423" ry="7.68232" transform="rotate(45.129 165.219 108.167)" fill="#FFF6D2"/>
<ellipse cx="137.034" cy="135.493" rx="5.41423" ry="7.68232" transform="rotate(45.129 137.034 135.493)" fill="#FFF6D2"/>
<ellipse cx="108.853" cy="162.818" rx="5.41423" ry="7.68232" transform="rotate(45.129 108.853 162.818)" fill="#FFF6D2"/>
<ellipse cx="56.2339" cy="92.3023" rx="5.41423" ry="7.68232" transform="rotate(-8.7841 56.2339 92.3023)" fill="#FFF6D2"/>
<ellipse cx="64.6814" cy="134.23" rx="5.41423" ry="7.68232" transform="rotate(-8.7841 64.6814 134.23)" fill="#FFF6D2"/>
</svg>
