<svg width="115" height="115" viewBox="0 0 115 115" fill="none" xmlns="http://www.w3.org/2000/svg">
<circle cx="57.8061" cy="57.495" r="27.3111" transform="rotate(24.8472 57.8061 57.495)" fill="#FFF6D2" stroke="#F1D145"/>
<circle cx="57.2139" cy="57.217" r="41.0531" transform="rotate(24.8472 57.2139 57.217)" fill="#FFF6D2" stroke="#F1D145"/>
<circle cx="57.8289" cy="57.4963" r="26.6199" transform="rotate(24.8472 57.8289 57.4963)" fill="#FFF6D2" stroke="#F1D145" stroke-width="5"/>
<circle cx="57.2247" cy="57.2179" r="40.0531" transform="rotate(24.8472 57.2247 57.2179)" fill="#FFF6D2" stroke="#F1D145" stroke-width="3"/>
<mask id="path-5-inside-1_347_230" fill="white">
<path d="M65.5653 16.5104C72.555 17.9425 79.0581 21.1503 84.4485 25.8247L75.6882 35.9267C72.0324 32.7564 67.6219 30.5808 62.8814 29.6096L65.5653 16.5104Z"/>
</mask>
<path d="M65.5653 16.5104C72.555 17.9425 79.0581 21.1503 84.4485 25.8247L75.6882 35.9267C72.0324 32.7564 67.6219 30.5808 62.8814 29.6096L65.5653 16.5104Z" fill="#FFF6D2" stroke="#F1D145" stroke-width="68" mask="url(#path-5-inside-1_347_230)"/>
<mask id="path-6-inside-2_347_230" fill="white">
<path d="M30.1307 25.7126C35.5403 21.0604 42.0567 17.8796 49.0522 16.4763L51.682 29.5864C46.9376 30.5381 42.5181 32.6954 38.8492 35.8506L30.1307 25.7126Z"/>
</mask>
<path d="M30.1307 25.7126C35.5403 21.0604 42.0567 17.8796 49.0522 16.4763L51.682 29.5864C46.9376 30.5381 42.5181 32.6954 38.8492 35.8506L30.1307 25.7126Z" fill="#FFF6D2" stroke="#F1D145" stroke-width="68" mask="url(#path-6-inside-2_347_230)"/>
<mask id="path-7-inside-3_347_230" fill="white">
<path d="M15.6718 57.0805C15.6954 49.9457 17.5557 42.9371 21.0736 36.7298L32.7066 43.3226C30.3207 47.5325 29.059 52.2858 29.043 57.1247L15.6718 57.0805Z"/>
</mask>
<path d="M15.6718 57.0805C15.6954 49.9457 17.5557 42.9371 21.0736 36.7298L32.7066 43.3226C30.3207 47.5325 29.059 52.2858 29.043 57.1247L15.6718 57.0805Z" fill="#FFF6D2" stroke="#F1D145" stroke-width="68" mask="url(#path-7-inside-3_347_230)"/>
<mask id="path-8-inside-4_347_230" fill="white">
<path d="M28.6673 87.403C23.4844 82.4995 19.6514 76.3442 17.5374 69.5297L30.3083 65.5679C31.742 70.1895 34.3416 74.3642 37.8567 77.6898L28.6673 87.403Z"/>
</mask>
<path d="M28.6673 87.403C23.4844 82.4995 19.6514 76.3442 17.5374 69.5297L30.3083 65.5679C31.742 70.1895 34.3416 74.3642 37.8567 77.6898L28.6673 87.403Z" fill="#FFF6D2" stroke="#F1D145" stroke-width="68" mask="url(#path-8-inside-4_347_230)"/>
<mask id="path-9-inside-5_347_230" fill="white">
<path d="M94.4507 38.7547C97.6209 45.1466 99.0918 52.247 98.7219 59.3723L85.3686 58.679C85.6195 53.8466 84.6219 49.0309 82.4718 44.6959L94.4507 38.7547Z"/>
</mask>
<path d="M94.4507 38.7547C97.6209 45.1466 99.0918 52.247 98.7219 59.3723L85.3686 58.679C85.6195 53.8466 84.6219 49.0309 82.4718 44.6959L94.4507 38.7547Z" fill="#FFF6D2" stroke="#F1D145" stroke-width="68" mask="url(#path-9-inside-5_347_230)"/>
<mask id="path-10-inside-6_347_230" fill="white">
<path d="M65.1952 97.9994C58.1928 99.368 50.956 98.9104 44.1817 96.6709L48.3788 83.9754C52.9732 85.4943 57.8813 85.8046 62.6304 84.8764L65.1952 97.9994Z"/>
</mask>
<path d="M65.1952 97.9994C58.1928 99.368 50.956 98.9104 44.1817 96.6709L48.3788 83.9754C52.9732 85.4943 57.8813 85.8046 62.6304 84.8764L65.1952 97.9994Z" fill="#FFF6D2" stroke="#F1D145" stroke-width="68" mask="url(#path-10-inside-6_347_230)"/>
<mask id="path-11-inside-7_347_230" fill="white">
<path d="M94.1085 76.3554C90.8225 82.6886 85.9611 88.0689 79.9926 91.9782L72.6662 80.7928C76.7141 78.1414 80.0111 74.4924 82.2397 70.1972L94.1085 76.3554Z"/>
</mask>
<path d="M94.1085 76.3554C90.8225 82.6886 85.9611 88.0689 79.9926 91.9782L72.6662 80.7928C76.7141 78.1414 80.0111 74.4924 82.2397 70.1972L94.1085 76.3554Z" fill="#FFF6D2" stroke="#F1D145" stroke-width="68" mask="url(#path-11-inside-7_347_230)"/>
<circle cx="57.6166" cy="57.0663" r="25.7927" transform="rotate(24.8472 57.6166 57.0663)" fill="#FFF6D2" stroke="#F1D145" stroke-width="6"/>
</svg>
