<svg width="205" height="205" viewBox="0 0 205 205" fill="none" xmlns="http://www.w3.org/2000/svg">
<circle cx="103.498" cy="102.941" r="49.294" transform="rotate(24.8472 103.498 102.941)" fill="#FFF6D2" stroke="#F1D145"/>
<circle cx="102.438" cy="102.443" r="73.8981" transform="rotate(24.8472 102.438 102.443)" fill="#FFF6D2" stroke="#F1D145"/>
<circle cx="103.539" cy="102.944" r="49.6373" transform="rotate(24.8472 103.539 102.944)" fill="#FFF6D2" stroke="#F1D145" stroke-width="5"/>
<circle cx="102.457" cy="102.445" r="72.8982" transform="rotate(24.8472 102.457 102.445)" fill="#FFF6D2" stroke="#F1D145" stroke-width="3"/>
<mask id="path-5-inside-1_347_215" fill="white">
<path d="M117.39 29.561C129.905 32.1251 141.548 37.8684 151.2 46.2377L135.515 64.3245C128.969 58.6484 121.073 54.7532 112.585 53.0142L117.39 29.561Z"/>
</mask>
<path d="M117.39 29.561C129.905 32.1251 141.548 37.8684 151.2 46.2377L135.515 64.3245C128.969 58.6484 121.073 54.7532 112.585 53.0142L117.39 29.561Z" fill="#FFF6D2" stroke="#F1D145" stroke-width="68" mask="url(#path-5-inside-1_347_215)"/>
<mask id="path-6-inside-2_347_215" fill="white">
<path d="M53.9471 46.0369C63.6327 37.7075 75.2998 32.0124 87.8248 29.4999L92.5333 52.9728C84.0387 54.6767 76.1259 58.5393 69.557 64.1884L53.9471 46.0369Z"/>
</mask>
<path d="M53.9471 46.0369C63.6327 37.7075 75.2998 32.0124 87.8248 29.4999L92.5333 52.9728C84.0387 54.6767 76.1259 58.5393 69.557 64.1884L53.9471 46.0369Z" fill="#FFF6D2" stroke="#F1D145" stroke-width="68" mask="url(#path-6-inside-2_347_215)"/>
<mask id="path-7-inside-3_347_215" fill="white">
<path d="M28.0593 102.199C28.1015 89.4247 31.4323 76.8763 37.7309 65.7625L58.559 77.5665C54.2872 85.104 52.0282 93.6145 51.9996 102.278L28.0593 102.199Z"/>
</mask>
<path d="M28.0593 102.199C28.1015 89.4247 31.4323 76.8763 37.7309 65.7625L58.559 77.5665C54.2872 85.104 52.0282 93.6145 51.9996 102.278L28.0593 102.199Z" fill="#FFF6D2" stroke="#F1D145" stroke-width="68" mask="url(#path-7-inside-3_347_215)"/>
<mask id="path-8-inside-4_347_215" fill="white">
<path d="M51.327 156.49C42.0473 147.71 35.1845 136.689 31.3995 124.489L54.265 117.395C56.832 125.67 61.4864 133.144 67.78 139.099L51.327 156.49Z"/>
</mask>
<path d="M51.327 156.49C42.0473 147.71 35.1845 136.689 31.3995 124.489L54.265 117.395C56.832 125.67 61.4864 133.144 67.78 139.099L51.327 156.49Z" fill="#FFF6D2" stroke="#F1D145" stroke-width="68" mask="url(#path-8-inside-4_347_215)"/>
<mask id="path-9-inside-5_347_215" fill="white">
<path d="M169.108 69.3879C174.784 80.8322 177.418 93.5451 176.755 106.302L152.847 105.061C153.296 96.409 151.51 87.7869 147.66 80.0253L169.108 69.3879Z"/>
</mask>
<path d="M169.108 69.3879C174.784 80.8322 177.418 93.5451 176.755 106.302L152.847 105.061C153.296 96.409 151.51 87.7869 147.66 80.0253L169.108 69.3879Z" fill="#FFF6D2" stroke="#F1D145" stroke-width="68" mask="url(#path-9-inside-5_347_215)"/>
<mask id="path-10-inside-6_347_215" fill="white">
<path d="M116.728 175.462C104.19 177.912 91.2334 177.093 79.1045 173.083L86.6191 150.353C94.845 153.072 103.633 153.628 112.136 151.966L116.728 175.462Z"/>
</mask>
<path d="M116.728 175.462C104.19 177.912 91.2334 177.093 79.1045 173.083L86.6191 150.353C94.845 153.072 103.633 153.628 112.136 151.966L116.728 175.462Z" fill="#FFF6D2" stroke="#F1D145" stroke-width="68" mask="url(#path-10-inside-6_347_215)"/>
<mask id="path-11-inside-7_347_215" fill="white">
<path d="M168.495 136.71C162.612 148.049 153.908 157.682 143.222 164.681L130.104 144.654C137.352 139.907 143.255 133.374 147.245 125.684L168.495 136.71Z"/>
</mask>
<path d="M168.495 136.71C162.612 148.049 153.908 157.682 143.222 164.681L130.104 144.654C137.352 139.907 143.255 133.374 147.245 125.684L168.495 136.71Z" fill="#FFF6D2" stroke="#F1D145" stroke-width="68" mask="url(#path-11-inside-7_347_215)"/>
<circle cx="103.159" cy="102.173" r="48.5515" transform="rotate(24.8472 103.159 102.173)" fill="#FFF6D2" stroke="#F1D145" stroke-width="6"/>
</svg>
