<svg width="171" height="171" viewBox="0 0 171 171" fill="none" xmlns="http://www.w3.org/2000/svg">
<path d="M95.6899 22.0565L44.2522 34.6635C42.7517 35.0312 42.217 36.889 43.2924 37.9982L81.388 77.29C81.8978 77.8157 82.6541 78.0208 83.3597 77.8247L133.504 63.8838C134.966 63.4773 135.461 61.6543 134.404 60.5647L97.6019 22.6069C97.1075 22.0969 96.3797 21.8875 95.6899 22.0565Z" fill="#F1D145"/>
<path d="M92.6469 26.1749L58.9174 34.5231C54.4243 35.6352 52.8292 41.2008 56.0513 44.524L81.0799 70.3385C82.6125 71.9191 84.8876 72.5335 87.0074 71.9391L119.892 62.7192C124.27 61.4916 125.745 56.0299 122.58 52.7654L98.3962 27.8226C96.9096 26.2893 94.72 25.6618 92.6469 26.1749Z" fill="#FFF6D2"/>
<ellipse cx="91.0366" cy="48.839" rx="4.07709" ry="5.78503" transform="rotate(-74.1091 91.0366 48.839)" fill="#F1D145"/>
<ellipse cx="70.4226" cy="43.641" rx="4.07709" ry="5.78503" transform="rotate(-74.1091 70.4226 43.641)" fill="#F1D145"/>
<ellipse cx="94.2063" cy="34.269" rx="4.07709" ry="5.78503" transform="rotate(-74.1091 94.2063 34.269)" fill="#F1D145"/>
<ellipse cx="85.5605" cy="61.7153" rx="4.07709" ry="5.78503" transform="rotate(-74.1091 85.5605 61.7153)" fill="#F1D145"/>
<ellipse cx="109.341" cy="52.342" rx="4.07709" ry="5.78503" transform="rotate(-74.1091 109.341 52.342)" fill="#F1D145"/>
<path d="M20.5606 93.1634L34.7512 42.1399C35.1652 40.6514 37.0386 40.1744 38.114 41.2836L76.2097 80.5754C76.7194 81.1011 76.9011 81.8634 76.6832 82.5626L61.1993 132.252C60.7478 133.701 58.9104 134.139 57.854 133.049L21.0516 95.0915C20.5572 94.5816 20.3703 93.8477 20.5606 93.1634Z" fill="#F1D145"/>
<path d="M84.758 82.51L136.089 69.3678C137.586 68.9846 138.933 70.3707 138.508 71.856L123.452 124.424C123.244 125.151 122.642 125.699 121.899 125.839L70.4804 135.508C69.0008 135.787 67.7559 134.392 68.1996 132.953L83.3429 83.858C83.548 83.1931 84.0839 82.6826 84.758 82.51Z" fill="#F1D145"/>
<ellipse cx="125.865" cy="82.4022" rx="4.1246" ry="5.85244" transform="rotate(45.129 125.865 82.4022)" fill="#FFF6D2"/>
<ellipse cx="104.394" cy="103.219" rx="4.1246" ry="5.85244" transform="rotate(45.129 104.394 103.219)" fill="#FFF6D2"/>
<ellipse cx="82.9253" cy="124.036" rx="4.1246" ry="5.85244" transform="rotate(45.129 82.9253 124.036)" fill="#FFF6D2"/>
<ellipse cx="42.8395" cy="70.3164" rx="4.1246" ry="5.85244" transform="rotate(-8.7841 42.8395 70.3164)" fill="#FFF6D2"/>
<ellipse cx="49.2745" cy="102.257" rx="4.1246" ry="5.85244" transform="rotate(-8.7841 49.2745 102.257)" fill="#FFF6D2"/>
</svg>
