<svg width="414" height="846" viewBox="0 0 414 846" fill="none" xmlns="http://www.w3.org/2000/svg">
<path d="M87.4429 111.042L65.8932 102.58C64.4552 102.015 62.9472 103.225 63.1863 104.751L66.8985 128.445C67.0119 129.169 67.5116 129.772 68.2011 130.019L89.6251 137.679C91.0541 138.189 92.5092 136.985 92.2743 135.486L88.6878 112.594C88.5778 111.892 88.104 111.302 87.4429 111.042Z" fill="#F1D145"/>
<path d="M83.9869 111.387L75.0648 107.907C70.7526 106.225 66.2404 109.853 66.9568 114.426L68.5195 124.4C68.8603 126.575 70.3649 128.389 72.4396 129.125L81.3099 132.275C85.5948 133.796 89.949 130.184 89.2452 125.692L87.7343 116.048C87.4037 113.938 85.9766 112.163 83.9869 111.387Z" fill="#FFF6D2"/>
<ellipse cx="78.7111" cy="120.522" rx="1.96698" ry="2.79097" transform="rotate(-38.8989 78.7111 120.522)" fill="#F1D145"/>
<ellipse cx="72.0312" cy="112.739" rx="1.96698" ry="2.79097" transform="rotate(-38.8989 72.0312 112.739)" fill="#F1D145"/>
<ellipse cx="84.0131" cy="115.66" rx="1.96698" ry="2.79097" transform="rotate(-38.8989 84.0131 115.66)" fill="#F1D145"/>
<ellipse cx="72.9706" cy="124.074" rx="1.96698" ry="2.79097" transform="rotate(-38.8989 72.9706 124.074)" fill="#F1D145"/>
<ellipse cx="84.9519" cy="126.994" rx="1.96698" ry="2.79097" transform="rotate(-38.8989 84.9519 126.994)" fill="#F1D145"/>
<path d="M39.0609 118.014L56.99 103.367C58.1864 102.389 59.9921 103.08 60.2312 104.606L63.9434 128.3C64.0568 129.023 63.7656 129.751 63.1845 130.197L45.1298 144.042C43.9255 144.965 42.1718 144.263 41.9369 142.764L38.3504 119.872C38.2404 119.171 38.5109 118.463 39.0609 118.014Z" fill="#F1D145"/>
<path d="M67.4116 132.254L89.0722 140.503C90.516 141.053 90.8177 142.963 89.6138 143.931L70.961 158.932C70.3714 159.406 69.5646 159.507 68.8764 159.193L48.06 149.68C46.6907 149.054 46.4776 147.197 47.6697 146.277L65.4782 132.539C66.0291 132.114 66.7614 132.006 67.4116 132.254Z" fill="#F1D145"/>
<ellipse cx="83.1035" cy="143.44" rx="1.9899" ry="2.82349" transform="rotate(80.3392 83.1035 143.44)" fill="#FFF6D2"/>
<ellipse cx="68.8493" cy="145.673" rx="1.9899" ry="2.82349" transform="rotate(80.3392 68.8493 145.673)" fill="#FFF6D2"/>
<ellipse cx="54.5964" cy="147.906" rx="1.9899" ry="2.82349" transform="rotate(80.3392 54.5964 147.906)" fill="#FFF6D2"/>
<ellipse cx="53.7383" cy="115.581" rx="1.9899" ry="2.82349" transform="rotate(26.4261 53.7383 115.581)" fill="#FFF6D2"/>
<ellipse cx="47.3901" cy="129.961" rx="1.9899" ry="2.82349" transform="rotate(26.4261 47.3901 129.961)" fill="#FFF6D2"/>
<path d="M256.85 81.6006L265.106 75.9579L274.231 62.6182L287.871 61.1874L297.666 52.0103L315.371 44.8929L341.369 47.5049L365.465 41.5841L383.467 48.4295L396.804 69.5489L411.179 79.3823L419.474 100.933L433.849 110.766L442.232 131.673L435.536 150.202L424.618 149.967L407.378 149.464L383.821 157.165L370.677 142.705L352.565 147.075L328.977 136.056L319.551 120.787L309.811 122.944L286.93 107.293L260.865 94.755L256.85 81.6006Z" fill="#FF7B1A"/>
<path d="M-17.3978 761.827L-6.39037 738.621L-15.0006 711.227L-11.3772 693.007L-28.347 692.329L-38.8729 683.357L-39.7658 659.407L-15.8643 640.926L3.51514 633.631L24.6502 644.126L35.6519 637.837L48.7362 636.456L62.1658 647.904L83.7766 643.138L108.595 657.4L120.781 687.216L133.485 698.045L130.427 714.866L147.456 737.53L140.346 767.191L121.127 776.504L122.413 792.64L108.49 808.974L95.7861 798.145L85.5759 810.122L69.4688 803.286L53.2722 782.586L32.6728 778.814L10.4671 793.1L-3.21781 820.917L-25.0668 814.2L-39.3414 796.391L-17.3978 761.827Z" fill="#5EDE80"/>
<circle cx="350.115" cy="680.888" r="19.7621" transform="rotate(24.8472 350.115 680.888)" stroke="#BF9BDE"/>
<circle cx="349.684" cy="680.686" r="29.7739" transform="rotate(24.8472 349.684 680.686)" stroke="#BF9BDE"/>
<circle cx="350.132" cy="680.89" r="18.7156" transform="rotate(24.8472 350.132 680.89)" stroke="#BF9BDE" stroke-width="5"/>
<circle cx="349.691" cy="680.686" r="28.7739" transform="rotate(24.8472 349.691 680.686)" stroke="#BF9BDE" stroke-width="3"/>
<mask id="path-21-inside-1_413_225" fill="white">
<path d="M355.768 651.028C360.86 652.072 365.598 654.409 369.525 657.815L363.143 665.174C360.48 662.865 357.266 661.28 353.813 660.572L355.768 651.028Z"/>
</mask>
<path d="M355.768 651.028C360.86 652.072 365.598 654.409 369.525 657.815L363.143 665.174C360.48 662.865 357.266 661.28 353.813 660.572L355.768 651.028Z" stroke="#BF9BDE" stroke-width="68" mask="url(#path-21-inside-1_413_225)"/>
<mask id="path-22-inside-2_413_225" fill="white">
<path d="M329.952 657.733C333.893 654.343 338.641 652.026 343.737 651.004L345.653 660.555C342.197 661.248 338.977 662.82 336.304 665.119L329.952 657.733Z"/>
</mask>
<path d="M329.952 657.733C333.893 654.343 338.641 652.026 343.737 651.004L345.653 660.555C342.197 661.248 338.977 662.82 336.304 665.119L329.952 657.733Z" stroke="#BF9BDE" stroke-width="68" mask="url(#path-22-inside-2_413_225)"/>
<mask id="path-23-inside-3_413_225" fill="white">
<path d="M319.418 680.586C319.435 675.388 320.79 670.282 323.353 665.759L331.828 670.563C330.09 673.63 329.171 677.093 329.159 680.618L319.418 680.586Z"/>
</mask>
<path d="M319.418 680.586C319.435 675.388 320.79 670.282 323.353 665.759L331.828 670.563C330.09 673.63 329.171 677.093 329.159 680.618L319.418 680.586Z" stroke="#BF9BDE" stroke-width="68" mask="url(#path-23-inside-3_413_225)"/>
<mask id="path-24-inside-4_413_225" fill="white">
<path d="M328.886 702.678C325.11 699.105 322.317 694.621 320.777 689.656L330.081 686.77C331.126 690.137 333.02 693.178 335.581 695.601L328.886 702.678Z"/>
</mask>
<path d="M328.886 702.678C325.11 699.105 322.317 694.621 320.777 689.656L330.081 686.77C331.126 690.137 333.02 693.178 335.581 695.601L328.886 702.678Z" stroke="#BF9BDE" stroke-width="68" mask="url(#path-24-inside-4_413_225)"/>
<mask id="path-25-inside-5_413_225" fill="white">
<path d="M376.813 667.235C379.122 671.892 380.194 677.065 379.925 682.256L370.196 681.751C370.379 678.23 369.652 674.722 368.085 671.563L376.813 667.235Z"/>
</mask>
<path d="M376.813 667.235C379.122 671.892 380.194 677.065 379.925 682.256L370.196 681.751C370.379 678.23 369.652 674.722 368.085 671.563L376.813 667.235Z" stroke="#BF9BDE" stroke-width="68" mask="url(#path-25-inside-5_413_225)"/>
<mask id="path-26-inside-6_413_225" fill="white">
<path d="M355.498 710.398C350.397 711.395 345.124 711.062 340.189 709.43L343.247 700.181C346.594 701.287 350.17 701.513 353.63 700.837L355.498 710.398Z"/>
</mask>
<path d="M355.498 710.398C350.397 711.395 345.124 711.062 340.189 709.43L343.247 700.181C346.594 701.287 350.17 701.513 353.63 700.837L355.498 710.398Z" stroke="#BF9BDE" stroke-width="68" mask="url(#path-26-inside-6_413_225)"/>
<mask id="path-27-inside-7_413_225" fill="white">
<path d="M376.563 694.629C374.169 699.243 370.628 703.163 366.279 706.011L360.941 697.862C363.891 695.93 366.293 693.272 367.916 690.142L376.563 694.629Z"/>
</mask>
<path d="M376.563 694.629C374.169 699.243 370.628 703.163 366.279 706.011L360.941 697.862C363.891 695.93 366.293 693.272 367.916 690.142L376.563 694.629Z" stroke="#BF9BDE" stroke-width="68" mask="url(#path-27-inside-7_413_225)"/>
<circle cx="349.977" cy="680.576" r="17.9772" transform="rotate(24.8472 349.977 680.576)" stroke="#BF9BDE" stroke-width="6"/>
</svg>
