<svg width="60" height="60" viewBox="0 0 60 60" fill="none" xmlns="http://www.w3.org/2000/svg">
<path fill-rule="evenodd" clip-rule="evenodd" d="M30.0248 0C13.4219 0 0 13.5208 0 30.2479C0 43.6188 8.59985 54.9369 20.5301 58.9428C22.0217 59.2439 22.5681 58.2919 22.5681 57.4911C22.5681 56.7899 22.5189 54.3863 22.5189 51.8818C14.1667 53.685 12.4275 48.2761 12.4275 48.2761C11.0852 44.7705 9.09644 43.8695 9.09644 43.8695C6.36277 42.0166 9.29556 42.0166 9.29556 42.0166C12.3279 42.2169 13.9191 45.1214 13.9191 45.1214C16.603 49.7283 20.9278 48.4267 22.6677 47.6252C22.9159 45.6721 23.7118 44.32 24.5569 43.569C17.8954 42.8678 10.8867 40.2638 10.8867 28.6451C10.8867 25.3399 12.079 22.6357 13.9682 20.5326C13.6702 19.7816 12.626 16.6761 14.2669 12.5197C14.2669 12.5197 16.8021 11.7182 22.5183 15.6245C24.9656 14.9624 27.4895 14.6256 30.0248 14.6228C32.56 14.6228 35.1443 14.9737 37.5307 15.6245C43.2476 11.7182 45.7827 12.5197 45.7827 12.5197C47.4237 16.6761 46.3789 19.7816 46.0808 20.5326C48.0198 22.6357 49.1629 25.3399 49.1629 28.6451C49.1629 40.2638 42.1542 42.8174 35.443 43.569C36.5369 44.5204 37.4809 46.3229 37.4809 49.1777C37.4809 53.2339 37.4318 56.4894 37.4318 57.4905C37.4318 58.2919 37.9788 59.2439 39.4697 58.9434C51.4 54.9363 59.9999 43.6188 59.9999 30.2479C60.049 13.5208 46.578 0 30.0248 0Z" fill="#FFF6D2"/>
</svg>
