<svg width="1064" height="554" viewBox="0 0 1064 554" fill="none" xmlns="http://www.w3.org/2000/svg">
<rect width="1043" height="472" rx="39" fill="#5D8BED"/>
<path d="M852.5 459.037L865.216 430.008L847.279 438.273L829.156 436.661L850.206 423.077L879.9 409.26L853.101 409.27L836.137 387.522L845.853 386.37L838.596 365.055L869.203 373.899L887.199 389.387L888.785 379.497L880.229 368.83L871.912 341.899L893.681 342.683L905.938 351.327L904.757 341.37L902.696 323.993L913.626 331.408L916.52 355.814L925.694 343.441L938.305 328.482L921.282 367.723L943.248 346.903L987.253 347.426L1030.69 391.377L1058.4 483.723L1049.14 518.678L1017.46 532.334L922.992 526.708L870.679 505.984L852.5 459.037Z" fill="#FF7DB7"/>
</svg>
