<svg width="96" height="96" viewBox="0 0 96 96" fill="none" xmlns="http://www.w3.org/2000/svg">
<rect width="96" height="96" rx="48" fill="#1A1A1A"/>
<path d="M32.788 66C30.244 66 28.516 65.808 26.98 65.424C19.972 63.6 14.788 57.072 14.788 49.44C14.788 41.712 20.02 35.232 27.028 33.456C28.516 33.072 30.148 32.88 32.788 32.88H33.268V40.8H32.788C30.052 40.8 28.132 41.328 26.596 42.384C24.484 43.824 22.948 46.56 22.948 49.44C22.948 52.32 24.484 55.056 26.596 56.496C28.132 57.552 30.052 58.08 32.788 58.08H33.268V66H32.788ZM61.408 44.928V51.6H58.288V55.008C58.288 61.536 52.912 66.96 46.24 66.96C39.616 66.96 34.288 61.872 34.288 55.296C34.288 52.464 35.296 49.44 37.936 47.424C36.784 46.272 35.776 44.688 35.776 42.096C35.776 36.96 39.568 32.112 46.24 32.112H54.016V39.312H46.24C44.656 39.312 43.36 40.608 43.36 42.192C43.36 43.776 44.656 44.928 46.24 44.928H50.128V42H58.288V44.928H61.408ZM50.128 54.96V51.6H46.72C44.128 51.6 42.448 53.184 42.448 55.44C42.448 57.6 44.176 59.28 46.288 59.28C48.4 59.28 50.128 57.6 50.128 54.96ZM79.9911 66C77.4471 66 75.7191 65.808 74.1831 65.424C67.1751 63.6 61.9911 57.072 61.9911 49.44C61.9911 41.712 67.2231 35.232 74.2311 33.456C75.7191 33.072 77.3511 32.88 79.9911 32.88H80.4711V40.8H79.9911C77.2551 40.8 75.3351 41.328 73.7991 42.384C71.6871 43.824 70.1511 46.56 70.1511 49.44C70.1511 52.32 71.6871 55.056 73.7991 56.496C75.3351 57.552 77.2551 58.08 79.9911 58.08H80.4711V66H79.9911Z" fill="#FFF6D2"/>
</svg>
