<svg width="208" height="208" viewBox="0 0 208 208" fill="none" xmlns="http://www.w3.org/2000/svg">
<path d="M104 0L113.776 26.6151L129.864 3.26735L132.714 31.4774L154.102 12.8641L149.847 40.8967L175.193 28.1873L164.1 54.2809L191.81 48.274L174.577 70.7892L202.91 71.8622L180.618 89.3843L207.795 97.4698L181.846 108.898L206.158 123.488L178.182 128.103L198.102 148.281L169.858 145.794L184.133 170.292L157.395 160.86L165.13 188.138L141.577 172.352L142.285 200.697L123.398 179.549L117.035 207.18L104 182L90.9653 207.18L84.6022 179.549L65.715 200.697L66.4232 172.352L42.8703 188.138L50.6053 160.86L23.8666 170.292L38.1424 145.794L9.89799 148.281L29.8176 128.103L1.84212 123.488L26.1539 108.898L0.205223 97.4698L27.3816 89.3843L5.09013 71.8622L33.4235 70.7892L16.1899 48.274L43.9 54.2809L32.8071 28.1873L58.1528 40.8967L53.8976 12.8641L75.2863 31.4774L78.1363 3.26735L94.224 26.6151L104 0Z" fill="#F1D145"/>
<path d="M41.6406 103.617H60.1562V110.25H41.6406V103.617ZM75.625 115.43C77.2344 115.43 78.6172 114.891 79.7734 113.812C80.9453 112.703 81.5312 111.367 81.5312 109.805C81.5312 108.258 80.9531 106.922 79.7969 105.797C79.1875 105.203 78.6641 104.789 78.2266 104.555C77.6172 104.211 76.8984 104.039 76.0703 104.039V104.016C74.2734 104.016 72.9297 104.195 72.0391 104.555C71.1328 104.914 69.9375 105.742 68.4531 107.039L64.2344 104.859L66.1562 85.2188H86.3359V92.7656H72.4609L72.0391 97.2188C73.2109 96.8594 74.5547 96.6797 76.0703 96.6797C79.5078 96.6797 82.5938 97.9688 85.3281 100.547C88.0625 103.141 89.4297 106.219 89.4297 109.781C89.4297 113.453 88.0781 116.57 85.375 119.133C82.6719 121.711 79.4219 123 75.625 123C72.7656 123 70.1484 122.203 67.7734 120.609C65.5547 119.141 63.9531 117.281 62.9688 115.031L70.5156 112.617C71.6875 114.492 73.3906 115.43 75.625 115.43ZM91.7969 104.086C91.7969 98.7891 93.0859 94.3438 95.6641 90.75C98.4141 86.9219 102.031 85.0078 106.516 85.0078C111.016 85.0078 114.617 86.9141 117.32 90.7266C119.93 94.3516 121.234 98.8047 121.234 104.086C121.234 109.398 119.93 113.867 117.32 117.492C114.602 121.289 111 123.188 106.516 123.188C102.016 123.188 98.3984 121.273 95.6641 117.445C93.0859 113.852 91.7969 109.398 91.7969 104.086ZM111.156 95.1094C109.953 93.4688 108.398 92.6484 106.492 92.6484C104.602 92.6484 103.055 93.4688 101.852 95.1094C100.195 97.4688 99.3672 100.461 99.3672 104.086C99.3672 107.758 100.195 110.75 101.852 113.062C103.055 114.703 104.602 115.523 106.492 115.523C108.398 115.523 109.953 114.703 111.156 113.062C112.797 110.766 113.617 107.773 113.617 104.086C113.617 100.43 112.797 97.4375 111.156 95.1094ZM124.023 92.7891C124.023 90.7266 124.773 88.9453 126.273 87.4453C127.773 85.9609 129.555 85.2188 131.617 85.2188C133.648 85.2188 135.414 85.9766 136.914 87.4922C138.43 88.9922 139.188 90.7578 139.188 92.7891C139.188 94.8359 138.438 96.6094 136.938 98.1094C135.438 99.625 133.664 100.383 131.617 100.383C129.539 100.383 127.75 99.6406 126.25 98.1562C124.766 96.6719 124.023 94.8828 124.023 92.7891ZM148.609 110.555C145.953 110.555 144.625 111.875 144.625 114.516C144.625 117.156 145.953 118.477 148.609 118.477C151.25 118.477 152.57 117.156 152.57 114.516C152.57 111.875 151.25 110.555 148.609 110.555ZM140.125 114.516C140.125 112.188 140.961 110.188 142.633 108.516C144.32 106.844 146.32 106.008 148.633 106.008C150.945 106.008 152.938 106.852 154.609 108.539C156.281 110.18 157.117 112.172 157.117 114.516C157.117 116.828 156.281 118.82 154.609 120.492C152.938 122.164 150.945 123 148.633 123C146.305 123 144.305 122.164 142.633 120.492C140.961 118.836 140.125 116.844 140.125 114.516ZM153.531 85.1953L129.672 123H124.023L147.906 85.1953H153.531ZM134.43 92.7656C134.445 92.0312 134.156 91.3672 133.562 90.7734C132.984 90.1953 132.344 89.8984 131.641 89.8828C131 89.8828 130.352 90.1406 129.695 90.6562C129.07 91.1406 128.758 91.8359 128.758 92.7422C128.758 93.6484 129.055 94.3594 129.648 94.875C130.227 95.375 130.883 95.625 131.617 95.625C132.367 95.625 133.016 95.3438 133.562 94.7812C134.109 94.2188 134.398 93.5469 134.43 92.7656Z" fill="#FF7B1A"/>
</svg>
