<svg width="60" height="60" viewBox="0 0 60 60" fill="none" xmlns="http://www.w3.org/2000/svg">
<g clip-path="url(#clip0_207_101)">
<path fill-rule="evenodd" clip-rule="evenodd" d="M60 30C60 46.5685 46.5685 60 30 60C13.4315 60 0 46.5685 0 30C0 13.4315 13.4315 0 30 0C46.5685 0 60 13.4315 60 30ZM31.0751 22.1473C28.1571 23.361 22.3253 25.873 13.5797 29.6833C12.1596 30.2481 11.4156 30.8005 11.3479 31.3408C11.2335 32.2537 12.3768 32.6132 13.9337 33.1028C14.1455 33.1694 14.3649 33.2384 14.5898 33.3115C16.1216 33.8094 18.1821 34.3919 19.2532 34.4151C20.2249 34.4361 21.3093 34.0355 22.5066 33.2133C30.6779 27.6975 34.896 24.9095 35.1608 24.8494C35.3476 24.807 35.6065 24.7537 35.7819 24.9096C35.9573 25.0655 35.9401 25.3608 35.9215 25.44C35.8082 25.9228 31.3203 30.0952 28.9978 32.2544C28.2738 32.9276 27.7602 33.405 27.6552 33.5141C27.42 33.7584 27.1803 33.9894 26.95 34.2115C25.5269 35.5833 24.4598 36.6121 27.009 38.292C28.2341 39.0993 29.2144 39.7669 30.1924 40.4329C31.2604 41.1602 32.3257 41.8857 33.704 42.7892C34.0552 43.0194 34.3906 43.2584 34.7172 43.4913C35.9602 44.3774 37.0769 45.1735 38.4565 45.0466C39.2581 44.9728 40.0862 44.219 40.5067 41.9709C41.5005 36.6579 43.4541 25.1461 43.9055 20.4024C43.9451 19.9868 43.8953 19.4549 43.8554 19.2214C43.8154 18.9879 43.7319 18.6553 43.4284 18.409C43.069 18.1173 42.5141 18.0558 42.2659 18.0602C41.1376 18.0801 39.4064 18.682 31.0751 22.1473Z" fill="#FFF6D2"/>
</g>
<defs>
<clipPath id="clip0_207_101">
<rect width="60" height="60" fill="white"/>
</clipPath>
</defs>
</svg>
