<svg width="255" height="231" viewBox="0 0 255 231" fill="none" xmlns="http://www.w3.org/2000/svg">
<path d="M31.1107 125.691L35.6336 87.8014L16.1032 72.2164L6.64203e-05 39.709L7.63146 30.1457L20.1851 67.1011L36.1066 79.8063L41.6083 72.9118L38.4131 54.709L50.1264 40.0304L48.3509 20.0484L67.4765 -6.05531e-05L95.7973 12.4069L101.659 47.2983L101.752 32.8119L122.423 21.2772L135.38 27.2479L142.754 45.8737L145.569 35.3792L162.454 21.187L179.548 31.5517L179.065 46.0911L169.126 58.5456L196.531 45.1039L222.006 65.4321L227.032 90.9202L209.284 113.16L230.93 112.596L247.294 136.939L234.154 157.76L252.41 172.328L254.252 195.275L238.812 214.624L221.628 216.565L208.678 206.231L199.686 224.902L169.424 230.603L156.593 212.719L159.585 202.002L140.014 212.594L118.949 204.157L113.38 185.881L121.374 171.51L110.101 153.414L97.3231 169.427L59.4985 163.269L59.6718 143.022L31.1107 125.691Z" fill="#BF9BDE"/>
</svg>
