<svg width="60" height="60" viewBox="0 0 60 60" fill="none" xmlns="http://www.w3.org/2000/svg">
<path fill-rule="evenodd" clip-rule="evenodd" d="M4.21766 4.21766C0 8.43532 0 15.2235 0 28.8V31.2C0 44.7765 0 51.5646 4.21766 55.7824C8.43532 60 15.2235 60 28.8 60H31.2C44.7765 60 51.5646 60 55.7824 55.7824C60 51.5646 60 44.7765 60 31.2V28.8C60 15.2235 60 8.43532 55.7824 4.21766C51.5646 0 44.7765 0 31.2 0H28.8C15.2235 0 8.43532 0 4.21766 4.21766ZM10.1251 18.2501C10.4501 33.8501 18.2501 43.2251 31.9251 43.2251H32.7002V34.3001C37.7253 34.8001 41.525 38.4751 43.05 43.2251H50.1501C48.2001 36.1251 43.0749 32.2001 39.8749 30.7001C43.0749 28.8501 47.5749 24.3501 48.6499 18.2501H42.1997C40.7998 23.2001 36.6502 27.7001 32.7002 28.1251V18.2501H26.25V35.5501C22.25 34.5501 17.2001 29.7001 16.9751 18.2501H10.1251Z" fill="#FFF6D2"/>
</svg>
